<?xml version="1.0" encoding="utf-8"?>
<!-- Generator: Adobe Illustrator 24.0.1, SVG Export Plug-In . SVG Version: 6.00 Build 0)  -->
<svg version="1.1" xmlns="http://www.w3.org/2000/svg" xmlns:xlink="http://www.w3.org/1999/xlink" x="0px" y="0px"
	 viewBox="0 0 200 200" style="enable-background:new 0 0 200 200;" xml:space="preserve">
<style type="text/css">
	.st0{fill:#C4170C;}
	.st1{fill:#FFFFFF;}
</style>
<g id="Layer_1">
	<path class="st0" d="M173.2,200H26.8C12,200,0,188,0,173.2V26.8C0,12,12,0,26.8,0h146.5C188,0,200,12,200,26.8v146.5
		C200,188,188,200,173.2,200z"/>
</g>
<g id="Layer_2">
	<g>
		<g>
			<path class="st1" d="M99.3,84.5c-0.2,3.1-0.4,7.2-0.4,14.3v26.7c0,9.2-1.9,16.8-7.3,21.6c-5.3,4.6-12.4,5.9-19.5,5.9
				c-6.3,0-13-1.3-17.3-3.7l3-11.3c3,1.7,8.3,3.6,13.9,3.6c7.1,0,12.5-3.8,12.5-12.6v-3.1h-0.2c-2.8,3.9-7.4,6.2-13,6.2
				c-11.8,0-20.3-9.6-20.3-23.4c0-15.5,10-25.3,21.8-25.3c6.6,0,10.7,2.9,13.1,6.8h0.2l0.5-5.7H99.3z M83.9,104c0-1-0.1-1.9-0.3-2.8
				c-1-3.9-3.9-6.6-8-6.6c-5.4,0-9.8,5-9.8,13.7c0,7.2,3.5,12.7,9.7,12.7c3.9,0,6.9-2.5,7.9-6c0.3-1.1,0.4-2.7,0.4-4V104z"/>
		</g>
		<g>
			<g>
				<path class="st1" d="M121.2,74.6h-0.2l-12.1,5.8l-2.5-11.2l16.9-7.9h12.3v63.8h-14.4V74.6z"/>
			</g>
		</g>
	</g>
	<g>
	</g>
	<g>
	</g>
	<g>
	</g>
	<g>
	</g>
	<g>
	</g>
	<g>
	</g>
	<g>
	</g>
	<g>
	</g>
	<g>
	</g>
	<g>
	</g>
	<g>
	</g>
	<g>
	</g>
	<g>
	</g>
	<g>
	</g>
	<g>
	</g>
</g>
</svg>
